<svg width="604" height="534" viewBox="0 0 604 534" fill="none" xmlns="http://www.w3.org/2000/svg">
<path d="M504.228 238.229C504.228 241.755 504.145 245.276 503.973 248.792C503.796 252.313 503.54 255.823 503.191 259.328C502.848 262.833 502.415 266.328 501.9 269.813C501.384 273.297 500.78 276.766 500.092 280.219C499.405 283.677 498.634 287.109 497.78 290.526C496.926 293.943 495.983 297.339 494.962 300.708C493.941 304.078 492.837 307.422 491.65 310.74C490.462 314.057 489.197 317.344 487.848 320.599C486.499 323.849 485.072 327.068 483.566 330.255C482.061 333.438 480.478 336.583 478.816 339.693C477.155 342.797 475.421 345.859 473.608 348.88C471.796 351.901 469.915 354.88 467.957 357.807C465.999 360.734 463.973 363.615 461.874 366.443C459.775 369.276 457.608 372.052 455.374 374.771C453.139 377.495 450.842 380.161 448.473 382.771C446.108 385.38 443.681 387.932 441.191 390.422C438.702 392.911 436.15 395.344 433.54 397.708C430.931 400.073 428.264 402.375 425.54 404.609C422.816 406.844 420.04 409.01 417.212 411.104C414.384 413.203 411.504 415.234 408.577 417.188C405.645 419.146 402.671 421.031 399.65 422.844C396.629 424.651 393.566 426.385 390.457 428.047C387.353 429.708 384.207 431.292 381.02 432.797C377.837 434.302 374.618 435.729 371.363 437.078C368.108 438.427 364.827 439.693 361.509 440.88C358.191 442.068 354.848 443.172 351.478 444.193C348.108 445.219 344.712 446.156 341.296 447.01C337.879 447.87 334.441 448.641 330.988 449.328C327.535 450.016 324.066 450.615 320.582 451.135C317.098 451.651 313.603 452.083 310.092 452.427C306.587 452.771 303.077 453.031 299.561 453.203C296.04 453.375 292.52 453.464 288.999 453.464C285.478 453.464 281.957 453.375 278.436 453.203C274.921 453.031 271.41 452.771 267.9 452.427C264.395 452.083 260.9 451.651 257.415 451.135C253.931 450.615 250.462 450.016 247.009 449.328C243.556 448.641 240.118 447.87 236.702 447.01C233.285 446.156 229.889 445.219 226.52 444.193C223.15 443.172 219.806 442.068 216.488 440.88C213.171 439.693 209.889 438.427 206.634 437.078C203.379 435.729 200.16 434.302 196.978 432.797C193.79 431.292 190.645 429.708 187.54 428.047C184.431 426.385 181.368 424.651 178.348 422.844C175.327 421.031 172.353 419.146 169.421 417.188C166.493 415.234 163.613 413.203 160.785 411.104C157.957 409.01 155.181 406.844 152.457 404.609C149.733 402.375 147.066 400.073 144.457 397.708C141.848 395.344 139.296 392.911 136.806 390.422C134.316 387.932 131.889 385.38 129.525 382.771C127.155 380.161 124.858 377.495 122.624 374.771C120.389 372.052 118.223 369.276 116.124 366.443C114.025 363.615 111.999 360.734 110.04 357.807C108.082 354.88 106.202 351.901 104.389 348.88C102.577 345.859 100.842 342.797 99.181 339.693C97.5195 336.583 95.9362 333.438 94.431 330.255C92.9258 327.068 91.4987 323.849 90.1497 320.599C88.8008 317.344 87.5352 314.057 86.3477 310.74C85.1602 307.422 84.056 304.078 83.0352 300.708C82.0143 297.339 81.0716 293.943 80.2174 290.526C79.3633 287.109 78.5924 283.677 77.9049 280.219C77.2174 276.766 76.6133 273.297 76.0977 269.813C75.582 266.328 75.1497 262.833 74.806 259.328C74.457 255.823 74.2018 252.313 74.0247 248.792C73.8529 245.276 73.7695 241.755 73.7695 238.229C73.7695 234.708 73.8529 231.188 74.0247 227.672C74.2018 224.151 74.457 220.641 74.806 217.135C75.1497 213.63 75.582 210.135 76.0977 206.651C76.6133 203.167 77.2174 199.698 77.9049 196.24C78.5924 192.786 79.3633 189.349 80.2174 185.932C81.0716 182.516 82.0143 179.125 83.0352 175.755C84.056 172.38 85.1602 169.036 86.3477 165.724C87.5352 162.406 88.8008 159.12 90.1497 155.865C91.4987 152.609 92.9258 149.391 94.431 146.208C95.9362 143.026 97.5195 139.88 99.181 136.771C100.842 133.667 102.577 130.604 104.389 127.578C106.202 124.557 108.082 121.583 110.04 118.656C111.999 115.724 114.025 112.849 116.124 110.016C118.223 107.188 120.389 104.411 122.624 101.688C124.858 98.9688 127.155 96.3021 129.525 93.6927C131.889 91.0833 134.316 88.5313 136.806 86.0417C139.296 83.5469 141.848 81.1198 144.457 78.7552C147.066 76.3906 149.733 74.0885 152.457 71.8542C155.181 69.6198 157.957 67.4531 160.785 65.3542C163.613 63.2552 166.493 61.2292 169.421 59.2708C172.353 57.3177 175.327 55.4323 178.348 53.6198C181.368 51.8125 184.431 50.0729 187.54 48.4167C190.645 46.7552 193.79 45.1719 196.978 43.6667C200.16 42.1563 203.379 40.7292 206.634 39.3854C209.889 38.0365 213.171 36.7656 216.488 35.5833C219.806 34.3958 223.15 33.2917 226.52 32.2656C229.889 31.2448 233.285 30.3073 236.702 29.4479C240.118 28.5937 243.556 27.8229 247.009 27.1354C250.462 26.4479 253.931 25.849 257.415 25.3281C260.9 24.8125 264.395 24.3802 267.9 24.0365C271.41 23.6927 274.921 23.4323 278.436 23.2604C281.957 23.0885 285.478 23 288.999 23C292.52 23 296.04 23.0885 299.561 23.2604C303.077 23.4323 306.587 23.6927 310.092 24.0365C313.603 24.3802 317.098 24.8125 320.582 25.3281C324.066 25.849 327.535 26.4479 330.988 27.1354C334.441 27.8229 337.879 28.5937 341.296 29.4479C344.712 30.3073 348.108 31.2448 351.478 32.2656C354.848 33.2917 358.191 34.3958 361.509 35.5833C364.827 36.7656 368.108 38.0365 371.363 39.3854C374.618 40.7292 377.837 42.1563 381.02 43.6667C384.207 45.1719 387.353 46.7552 390.457 48.4167C393.566 50.0729 396.629 51.8125 399.65 53.6198C402.671 55.4323 405.645 57.3177 408.577 59.2708C411.504 61.2292 414.384 63.2552 417.212 65.3542C420.04 67.4531 422.816 69.6198 425.54 71.8542C428.264 74.0885 430.931 76.3906 433.54 78.7552C436.15 81.1198 438.702 83.5469 441.191 86.0417C443.681 88.5313 446.108 91.0833 448.473 93.6927C450.842 96.3021 453.139 98.9688 455.374 101.688C457.608 104.411 459.775 107.188 461.874 110.016C463.973 112.849 465.999 115.724 467.957 118.656C469.915 121.583 471.796 124.557 473.608 127.578C475.421 130.604 477.155 133.667 478.816 136.771C480.478 139.88 482.061 143.026 483.566 146.208C485.072 149.391 486.499 152.609 487.848 155.865C489.197 159.12 490.462 162.406 491.65 165.724C492.837 169.036 493.941 172.38 494.962 175.755C495.983 179.125 496.926 182.516 497.78 185.932C498.634 189.349 499.405 192.786 500.092 196.24C500.78 199.698 501.384 203.167 501.9 206.651C502.415 210.135 502.848 213.63 503.191 217.135C503.54 220.641 503.796 224.151 503.973 227.672C504.145 231.188 504.228 234.708 504.228 238.229Z" fill="#CD5FF8"/>
<path d="M423.109 379.203C423.109 379.203 404.578 352.021 397.167 284.354C391.906 236.339 387.807 140.005 382.339 125.948C381.661 124.229 380.823 122.594 379.823 121.037L379.807 120.959C374.948 104.854 337.729 67.8856 287.078 69.12C283.609 69.1669 280.161 69.4377 276.729 69.9377C273.297 70.4377 269.917 71.1617 266.578 72.1096C263.245 73.0575 259.984 74.219 256.802 75.5992C253.62 76.9794 250.547 78.5627 247.573 80.3492C244.599 82.1356 241.76 84.1096 239.047 86.2711C236.339 88.4325 233.781 90.7658 231.375 93.2658C228.974 95.7658 226.745 98.4117 224.693 101.209C222.641 104.005 220.781 106.922 219.12 109.964C217.849 109.922 216.589 109.974 215.328 110.13C214.068 110.287 212.828 110.542 211.615 110.891C210.396 111.245 209.208 111.693 208.063 112.229C206.917 112.771 205.818 113.396 204.771 114.11C203.719 114.828 202.734 115.62 201.813 116.49C200.891 117.36 200.042 118.297 199.271 119.302C198.495 120.308 197.807 121.37 197.203 122.485C196.594 123.599 196.083 124.75 195.661 125.948C190.193 140.005 186.094 236.339 180.833 284.354C173.422 352.021 154.891 379.203 154.891 379.203H423.109Z" fill="#212121"/>
<path d="M450.116 380.974C439.538 392.896 427.783 403.521 414.85 412.843C401.923 422.166 388.132 429.968 373.48 436.244C363.923 440.281 354.137 443.635 344.116 446.312C338.814 447.698 333.507 448.927 328.048 449.849C315.147 452.26 302.132 453.463 289.001 453.463C275.871 453.463 262.855 452.26 249.954 449.849C244.496 448.927 239.189 447.698 233.887 446.312C223.866 443.635 214.079 440.281 204.522 436.244C189.871 429.968 176.079 422.166 163.152 412.843C150.22 403.521 138.465 392.896 127.887 380.974C129.777 378.083 132.095 375.578 134.84 373.474C137.579 371.364 140.59 369.765 143.876 368.677L163.012 362.375H163.09L200.678 349.922L229.199 340.541L230.579 340.083L232.272 339.541L238.345 337.547L242.96 336.01L258.022 331.01L258.257 309.255H319.746V330.781L335.043 335.854L340.809 337.776L345.73 339.39L347.423 339.927L348.803 340.39L377.246 349.843L414.913 362.297L434.126 368.677C437.413 369.765 440.423 371.364 443.163 373.474C445.908 375.578 448.225 378.083 450.116 380.974Z" fill="#FFAB91"/>
<path d="M450.116 380.974C439.538 392.896 427.783 403.521 414.85 412.844C401.923 422.167 388.132 429.969 373.48 436.245C363.923 440.281 354.137 443.635 344.116 446.313C338.814 447.698 333.507 448.927 328.048 449.849C315.147 452.26 302.132 453.464 289.001 453.464C275.871 453.464 262.855 452.26 249.954 449.849C244.496 448.927 239.189 447.698 233.887 446.313C223.866 443.635 214.079 440.281 204.522 436.245C189.871 429.969 176.079 422.167 163.152 412.844C150.22 403.521 138.465 392.896 127.887 380.974C129.777 378.083 132.095 375.578 134.84 373.474C137.579 371.365 140.59 369.766 143.876 368.677L163.012 362.375H163.09L200.678 349.922L229.199 340.542L228.658 355.146V355.224L227.736 379.208L227.428 388.047L242.725 393.427L259.637 399.349L260.173 399.578L289.001 409.646L317.829 399.578L318.366 399.349L335.277 393.427L350.574 388.047L350.267 379.208L349.345 354.917L348.803 340.391L377.246 349.844L414.913 362.297L434.126 368.677C437.413 369.766 440.423 371.365 443.163 373.474C445.908 375.578 448.225 378.083 450.116 380.974Z" fill="#1E243A"/>
<path d="M288.999 398.817L281.311 366.963L250.566 352.005L288.999 398.817Z" fill="#697F87"/>
<path d="M289 398.817L296.688 366.963L327.432 352.005L289 398.817Z" fill="#697F87"/>
<path d="M347.266 435.63C346.344 439.318 345.344 442.854 344.115 446.313C338.813 447.698 333.506 448.927 328.047 449.849C315.146 452.26 302.131 453.464 289 453.464C275.87 453.464 262.855 452.26 249.954 449.849C244.495 448.927 239.188 447.698 233.886 446.313C232.657 442.854 231.657 439.318 230.735 435.63C226.886 417 225.579 398.193 226.813 379.208C227.198 370.135 227.891 361.833 228.657 355.224V355.146C229.427 347.464 230.271 342.005 230.579 340.083L232.271 339.542L238.344 337.547L239.266 337.312L242.495 341.391L251.49 352.458L273.167 379.208L273.318 379.359L289 398.807L304.683 379.359L304.834 379.208L326.511 352.458L335.506 341.313L338.735 337.312L340.808 337.776L345.73 339.391L347.422 339.927C347.73 341.771 348.495 347.229 349.344 354.917C350.032 361.604 350.802 369.984 351.188 379.208C352.386 398.188 351.079 416.995 347.266 435.63Z" fill="#CBCFD1"/>
<path d="M388.47 222.859C388.465 221.859 388.418 220.87 388.319 219.875C388.22 218.885 388.074 217.901 387.882 216.922C387.689 215.943 387.444 214.979 387.158 214.026C386.871 213.073 386.538 212.135 386.158 211.214C385.777 210.292 385.355 209.391 384.892 208.51C384.423 207.63 383.913 206.771 383.366 205.943C382.814 205.109 382.225 204.307 381.6 203.536C380.97 202.76 380.309 202.021 379.605 201.313C378.908 200.599 378.173 199.927 377.413 199.286C376.647 198.651 375.85 198.052 375.027 197.49C374.204 196.927 373.355 196.411 372.48 195.932C371.605 195.453 370.71 195.016 369.793 194.625C368.882 194.234 367.944 193.891 366.996 193.589C366.048 193.286 365.085 193.031 364.111 192.828C363.137 192.62 362.152 192.458 361.163 192.349C360.173 192.234 359.178 192.172 358.184 192.156V192.109H342.809V253.604H358.184V253.557C359.178 253.542 360.173 253.479 361.163 253.37C362.152 253.255 363.137 253.094 364.111 252.891C365.085 252.682 366.048 252.427 366.996 252.125C367.944 251.828 368.882 251.479 369.793 251.089C370.71 250.698 371.605 250.26 372.48 249.786C373.355 249.307 374.204 248.786 375.027 248.224C375.85 247.661 376.647 247.063 377.413 246.427C378.173 245.786 378.908 245.115 379.605 244.406C380.309 243.698 380.97 242.953 381.6 242.182C382.225 241.406 382.814 240.604 383.366 239.771C383.913 238.943 384.423 238.089 384.887 237.208C385.355 236.323 385.777 235.422 386.158 234.505C386.538 233.583 386.871 232.646 387.158 231.688C387.444 230.734 387.689 229.771 387.882 228.792C388.074 227.818 388.22 226.833 388.319 225.839C388.418 224.849 388.465 223.854 388.47 222.859Z" fill="#EA7760"/>
<path d="M219.819 192.109C218.814 192.109 217.809 192.161 216.809 192.26C215.803 192.359 214.809 192.505 213.819 192.703C212.835 192.896 211.855 193.141 210.892 193.432C209.928 193.729 208.986 194.068 208.053 194.453C207.121 194.839 206.215 195.266 205.324 195.74C204.439 196.214 203.574 196.734 202.736 197.292C201.902 197.854 201.09 198.453 200.314 199.089C199.538 199.729 198.788 200.406 198.079 201.115C197.366 201.828 196.689 202.573 196.053 203.354C195.413 204.13 194.814 204.938 194.257 205.776C193.694 206.615 193.178 207.474 192.704 208.365C192.23 209.25 191.798 210.161 191.413 211.089C191.027 212.021 190.689 212.969 190.397 213.932C190.105 214.896 189.861 215.87 189.663 216.859C189.465 217.849 189.319 218.844 189.22 219.844C189.121 220.844 189.074 221.849 189.074 222.859C189.074 223.865 189.121 224.87 189.22 225.87C189.319 226.875 189.465 227.87 189.663 228.854C189.861 229.844 190.105 230.818 190.397 231.781C190.689 232.745 191.027 233.693 191.413 234.625C191.798 235.552 192.23 236.464 192.704 237.354C193.178 238.24 193.694 239.104 194.257 239.938C194.814 240.776 195.413 241.583 196.053 242.365C196.689 243.141 197.366 243.885 198.079 244.599C198.788 245.313 199.538 245.984 200.314 246.625C201.09 247.266 201.902 247.865 202.736 248.422C203.574 248.984 204.439 249.5 205.324 249.974C206.215 250.448 207.121 250.88 208.053 251.266C208.986 251.651 209.928 251.99 210.892 252.281C211.855 252.573 212.835 252.818 213.819 253.016C214.809 253.208 215.803 253.359 216.809 253.458C217.809 253.557 218.814 253.604 219.819 253.604H235.194V192.109H219.819Z" fill="#EA7760"/>
<path d="M319.743 324.599V286.224H258.254V324.599C263.145 326.541 268.176 328.005 273.348 328.989C278.52 329.979 283.733 330.474 288.999 330.474C294.264 330.474 299.478 329.979 304.65 328.989C309.822 328.005 314.853 326.541 319.743 324.599Z" fill="#EA7760"/>
<path d="M219.816 192.11C219.816 145.412 226.108 107.558 288.999 107.558C351.889 107.558 358.181 145.412 358.181 192.11V245.917C358.181 248.183 358.072 250.443 357.848 252.698C357.624 254.953 357.29 257.193 356.853 259.417C356.41 261.636 355.858 263.834 355.202 266C354.546 268.167 353.78 270.297 352.915 272.391C352.046 274.485 351.077 276.532 350.009 278.532C348.941 280.526 347.78 282.469 346.52 284.354C345.264 286.24 343.915 288.058 342.478 289.808C341.04 291.558 339.52 293.235 337.915 294.839C336.316 296.438 334.639 297.959 332.889 299.396C331.134 300.834 329.316 302.183 327.436 303.443C325.551 304.698 323.608 305.865 321.608 306.933C319.613 308 317.566 308.969 315.473 309.834C313.379 310.703 311.249 311.464 309.082 312.12C306.915 312.776 304.717 313.328 302.493 313.771C300.275 314.214 298.035 314.547 295.78 314.766C293.525 314.99 291.264 315.099 288.999 315.099C286.733 315.099 284.473 314.99 282.217 314.766C279.962 314.547 277.723 314.214 275.504 313.771C273.28 313.328 271.082 312.776 268.915 312.12C266.749 311.464 264.618 310.703 262.525 309.834C260.431 308.969 258.384 308 256.389 306.933C254.389 305.865 252.447 304.698 250.561 303.443C248.681 302.183 246.863 300.834 245.108 299.396C243.358 297.959 241.681 296.438 240.082 294.839C238.478 293.235 236.957 291.558 235.52 289.808C234.082 288.058 232.733 286.24 231.478 284.354C230.217 282.469 229.056 280.526 227.988 278.532C226.921 276.532 225.952 274.485 225.082 272.391C224.217 270.297 223.452 268.167 222.796 266C222.139 263.834 221.587 261.636 221.145 259.417C220.707 257.193 220.374 254.953 220.15 252.698C219.926 250.443 219.816 248.183 219.816 245.917V192.11Z" fill="#FFAB91"/>
<path d="M346.786 118.125C333.947 104.255 296.275 99.0362 267.541 102.271C263.567 102.14 259.64 102.526 255.77 103.427C251.895 104.328 248.202 105.718 244.692 107.588C242.447 108.359 240.369 109.453 238.463 110.864C236.551 112.276 234.9 113.942 233.51 115.864C232.739 116.609 231.963 117.312 231.213 118.125C210.619 140.359 219.817 192.109 219.817 192.109C220.963 181.416 222.999 170.89 225.921 160.536C226.781 158.208 228.01 156.088 229.598 154.182C231.192 152.276 233.057 150.687 235.192 149.422C239.255 148.213 243.046 146.437 246.577 144.088C250.104 141.739 253.213 138.927 255.895 135.646C260.854 139.099 266.13 141.984 271.708 144.307C277.291 146.63 283.051 148.333 288.999 149.422C306.937 151.604 324.869 151.604 342.807 149.422C344.942 150.687 346.807 152.276 348.4 154.182C349.989 156.088 351.218 158.208 352.077 160.536C354.999 170.89 357.036 181.416 358.182 192.109C358.182 192.109 367.38 140.359 346.786 118.125Z" fill="#212121"/>
<path d="M259.944 399.968L281.314 366.963L258.048 331.021L232.309 339.51L259.944 399.968Z" fill="#90A4AE"/>
<path d="M345.734 339.411L319.745 330.817L296.688 366.963L318.057 399.968L345.734 339.411Z" fill="#90A4AE"/>
<path d="M242.723 393.427C243.957 412.385 246.363 431.192 249.952 449.849C244.493 448.927 239.186 447.698 233.884 446.312C223.863 443.635 214.077 440.281 204.52 436.244L197.681 429.25L209.056 399.656L185.301 379.437L185.457 379.208L200.676 349.922L229.197 340.541L230.577 340.083L232.27 339.541L238.342 337.547L242.957 336.005C242.801 337.776 242.645 339.541 242.493 341.39C242.108 347.463 241.879 353.843 241.879 360.453C241.801 366.599 241.879 372.828 242.03 379.208C242.186 383.896 242.493 388.661 242.723 393.427Z" fill="#343D56"/>
<path d="M368.943 399.657L380.318 429.25L373.479 436.245C363.922 440.282 354.135 443.636 344.115 446.313C338.813 447.698 333.505 448.927 328.047 449.849C331.635 431.193 334.042 412.386 335.276 393.427C335.505 388.662 335.813 383.896 335.969 379.209C336.12 372.828 336.198 366.526 336.12 360.375C336.12 353.766 335.891 347.386 335.505 341.313C335.354 339.469 335.198 337.62 335.042 335.854L340.807 337.776L345.729 339.391L347.422 339.927L348.802 340.391L377.245 349.844L392.542 379.209L392.698 379.438L368.943 399.657Z" fill="#343D56"/>
</svg>
